<?xml version="1.0" encoding="UTF-8" standalone="no"?><!DOCTYPE svg PUBLIC "-//W3C//DTD SVG 1.1//EN" "http://www.w3.org/Graphics/SVG/1.1/DTD/svg11.dtd"><svg width="100%" height="100%" viewBox="0 0 50 50" version="1.1" xmlns="http://www.w3.org/2000/svg" xmlns:xlink="http://www.w3.org/1999/xlink" xml:space="preserve" xmlns:serif="http://www.serif.com/" style="fill-rule:evenodd;clip-rule:evenodd;stroke-linejoin:round;stroke-miterlimit:2;"><path d="M19.464,3.885l-2.719,6.601l-7.078,-0.934l0.946,7.077l-6.597,2.73l4.358,5.655l-4.348,5.663l6.601,2.719l-0.933,7.078l7.076,-0.945l2.73,6.596l5.656,-4.357l5.663,4.347l2.719,-6.601l7.078,0.934l-0.946,-7.077l6.596,-2.73l-4.357,-5.655l4.348,-5.663l-6.602,-2.719l0.934,-7.078l-7.076,0.945l-2.731,-6.596l-5.655,4.357l-5.663,-4.347Zm2.168,8.063c7.204,-1.936 14.624,2.339 16.561,9.543c1.937,7.203 -2.339,14.624 -9.542,16.561c-7.204,1.936 -14.624,-2.339 -16.561,-9.543c-1.937,-7.203 2.339,-14.624 9.542,-16.561Z"/><path d="M21.192,15.292c1.219,-0.497 2.553,-0.771 3.949,-0.771c5.784,0 10.48,4.695 10.48,10.479c0,5.784 -4.696,10.479 -10.48,10.479c-1.396,0 -2.73,-0.274 -3.949,-0.771c3.828,-1.56 6.529,-5.321 6.529,-9.708c0,-4.387 -2.701,-8.148 -6.529,-9.708Z"/></svg>