<?xml version="1.0" encoding="UTF-8" standalone="no"?><!DOCTYPE svg PUBLIC "-//W3C//DTD SVG 1.1//EN" "http://www.w3.org/Graphics/SVG/1.1/DTD/svg11.dtd"><svg width="100%" height="100%" viewBox="0 0 100 100" version="1.1" xmlns="http://www.w3.org/2000/svg" xmlns:xlink="http://www.w3.org/1999/xlink" xml:space="preserve" xmlns:serif="http://www.serif.com/" style="fill-rule:evenodd;clip-rule:evenodd;stroke-linejoin:round;stroke-miterlimit:2;"><circle cx="50" cy="50" r="49.867" style="fill:#0f0a0e;"/><path d="M50,6.445c24.039,0 43.555,19.516 43.555,43.555c0,24.039 -19.516,43.555 -43.555,43.555c-24.039,0 -43.555,-19.516 -43.555,-43.555c0,-24.039 19.516,-43.555 43.555,-43.555Zm0,9.435c18.832,0 34.12,15.288 34.12,34.12c0,18.832 -15.288,34.12 -34.12,34.12c-18.832,0 -34.12,-15.288 -34.12,-34.12c0,-18.832 15.288,-34.12 34.12,-34.12Z" style="fill:#ffa4f7;"/><path d="M71.796,61.954c-4.228,7.688 -12.408,12.904 -21.796,12.904c-13.72,0 -24.858,-11.138 -24.858,-24.858c0,-13.72 11.138,-24.858 24.858,-24.858c9.388,0 17.568,5.216 21.796,12.904l-8.96,4.695c-2.535,-4.469 -7.336,-7.487 -12.836,-7.487c-8.138,0 -14.746,6.608 -14.746,14.746c0,8.138 6.608,14.746 14.746,14.746c5.5,0 10.301,-3.018 12.836,-7.487l8.96,4.695Z" style="fill:#ffa4f7;"/></svg>